<svg width="728" height="223" viewBox="0 0 728 223" fill="none" xmlns="http://www.w3.org/2000/svg">
<path d="M11.2799 107.8C11.2799 97.5612 13.1599 88.1902 16.9199 79.6868C20.6799 71.1835 25.9438 63.895 32.7118 57.8212C39.5376 51.6895 47.6938 46.9462 57.1805 43.5911C66.7251 40.236 77.2819 38.5585 88.8511 38.5585C100.362 38.5585 110.89 40.236 120.435 43.5911C129.979 46.9462 138.136 51.6895 144.904 57.8212C151.729 63.895 157.022 71.1835 160.782 79.6868C164.542 88.1902 166.422 97.5612 166.422 107.8C166.422 116.939 164.918 125.414 161.91 133.223C158.96 140.974 154.766 147.858 149.329 153.874L173.711 176H138.83L130.413 168.364C124.513 171.488 118.092 173.86 111.151 175.479C104.209 177.099 96.7759 177.909 88.8511 177.909C77.2819 177.909 66.7251 176.202 57.1805 172.79C47.6938 169.319 39.5376 164.489 32.7118 158.299C25.9438 152.11 20.6799 144.734 16.9199 136.173C13.1599 127.554 11.2799 118.096 11.2799 107.8ZM38.7856 107.8C38.7856 114.799 40.0293 121.104 42.5166 126.715C45.0618 132.326 48.5615 137.128 53.0156 141.119C57.5276 145.053 62.8205 148.089 68.8943 150.23C75.0259 152.37 81.6782 153.44 88.8511 153.44C96.5445 153.44 103.573 152.225 109.936 149.796L71.0635 114.568H105.944L129.546 136C132.496 132.24 134.781 128.017 136.4 123.331C138.078 118.588 138.917 113.411 138.917 107.8C138.917 100.801 137.644 94.5243 135.099 88.9711C132.554 83.4179 129.054 78.7324 124.6 74.9146C120.146 71.0389 114.853 68.0888 108.721 66.0642C102.647 64.0396 96.0239 63.0273 88.8511 63.0273C81.6782 63.0273 75.0259 64.0396 68.8943 66.0642C62.8205 68.0888 57.5276 71.0389 53.0156 74.9146C48.5615 78.7324 45.0618 83.4179 42.5166 88.9711C40.0293 94.5243 38.7856 100.801 38.7856 107.8ZM194.448 32.0509H220.132V176H194.448V32.0509ZM248.245 124.459C248.245 117.518 249.662 110.895 252.497 104.589C255.331 98.2264 259.409 92.6154 264.731 87.7563C270.053 82.8973 276.56 79.0216 284.254 76.1293C292.005 73.237 300.798 71.7909 310.632 71.7909C320.408 71.7909 329.2 73.266 337.009 76.2161C344.876 79.1084 351.529 83.0997 356.966 88.1902C362.461 93.2806 366.655 99.2676 369.548 106.151C372.498 113.035 373.973 120.41 373.973 128.277C373.973 129.261 373.944 130.331 373.886 131.488C373.886 132.587 373.828 133.599 373.712 134.525H276.879C277.978 137.59 279.742 140.396 282.172 142.941C284.659 145.486 287.754 147.685 291.456 149.536C295.158 151.387 299.438 152.833 304.298 153.874C309.157 154.857 314.536 155.349 320.436 155.349C326.337 155.349 332.208 154.742 338.051 153.527C343.893 152.254 349.475 150.664 354.797 148.755L363.474 168.364C360.119 169.926 356.706 171.314 353.235 172.529C349.822 173.686 346.236 174.67 342.476 175.479C338.774 176.231 334.869 176.81 330.762 177.215C326.713 177.62 322.432 177.822 317.92 177.822C306.409 177.822 296.315 176.434 287.638 173.657C278.961 170.881 271.701 167.092 265.859 162.291C260.017 157.489 255.62 151.849 252.67 145.371C249.72 138.892 248.245 131.922 248.245 124.459ZM346.727 114.481C345.802 111.647 344.356 109.015 342.389 106.585C340.48 104.098 338.079 101.957 335.187 100.164C332.295 98.3132 328.94 96.867 325.122 95.8258C321.304 94.7846 317.11 94.264 312.541 94.264C307.681 94.264 303.256 94.8135 299.265 95.9126C295.274 97.0116 291.774 98.4867 288.766 100.338C285.758 102.189 283.242 104.329 281.217 106.759C279.25 109.188 277.804 111.762 276.879 114.481H346.727ZM396.793 143.722C396.793 138.805 397.863 134.322 400.003 130.273C402.144 126.224 405.354 122.753 409.635 119.861C413.915 116.911 419.237 114.655 425.6 113.093C432.021 111.473 439.483 110.663 447.986 110.663C454.292 110.663 460.915 111.126 467.856 112.052C474.856 112.977 482.058 114.394 489.462 116.303C489.173 113.064 488.189 110.085 486.512 107.366C484.834 104.589 482.491 102.218 479.483 100.251C476.533 98.2264 472.947 96.6646 468.724 95.5655C464.559 94.4664 459.816 93.9169 454.494 93.9169C451.602 93.9169 448.42 94.0904 444.949 94.4375C441.479 94.7846 437.892 95.3052 434.19 95.9993C430.488 96.6935 426.815 97.5612 423.171 98.6024C419.584 99.6436 416.229 100.887 413.105 102.333L405.296 81.2487C409.172 79.8604 413.308 78.5878 417.704 77.4309C422.158 76.2739 426.699 75.2906 431.327 74.4807C435.954 73.613 440.582 72.9478 445.21 72.485C449.837 72.0223 454.32 71.7909 458.659 71.7909C477.806 71.7909 492.036 76.6789 501.349 86.4548C510.662 96.2307 515.319 111.213 515.319 131.401V176H489.635V166.369C486.974 167.931 484.053 169.406 480.872 170.794C477.748 172.182 474.335 173.397 470.633 174.438C466.931 175.479 462.939 176.289 458.659 176.868C454.436 177.504 449.953 177.822 445.21 177.822C437.227 177.822 430.199 176.954 424.125 175.219C418.109 173.484 413.076 171.083 409.027 168.017C404.978 164.951 401.912 161.365 399.83 157.258C397.805 153.093 396.793 148.581 396.793 143.722ZM423.865 142.854C423.865 144.532 424.299 146.152 425.166 147.713C426.034 149.217 427.422 150.577 429.331 151.792C431.24 152.948 433.67 153.903 436.62 154.655C439.628 155.349 443.243 155.696 447.466 155.696C451.978 155.696 456.345 155.291 460.568 154.481C464.791 153.672 468.724 152.601 472.368 151.271C476.013 149.94 479.31 148.408 482.26 146.672C485.21 144.937 487.669 143.144 489.635 141.293V136.781C485.702 135.682 481.797 134.756 477.922 134.004C474.104 133.252 470.431 132.674 466.902 132.269C463.431 131.806 460.134 131.488 457.01 131.314C453.944 131.141 451.255 131.054 448.941 131.054C444.14 131.054 440.148 131.372 436.967 132.008C433.785 132.645 431.211 133.512 429.244 134.611C427.278 135.653 425.889 136.896 425.079 138.342C424.27 139.789 423.865 141.293 423.865 142.854ZM549.332 73.613H575.016V88.3637C580.684 84.141 586.672 80.4967 592.977 77.4309C599.282 74.365 605.558 72.0223 611.806 70.4026L619.354 93.9169C609.463 94.9003 600.757 97.1273 593.237 100.598C585.775 104.011 579.701 108.841 575.016 115.088V176H549.332V73.613Z" fill="black"/>
<path d="M610.851 84.2235C619.181 73.1171 638.616 74.0426 640.468 86.0746C642.546 99.581 597.893 118.468 597.893 144.383C597.893 151.934 603.446 166.596 638.616 172.149" stroke="black" stroke-width="3.70213"/>
<path d="M669.159 153.638L637.691 172.149L655.277 201.766L710.808 216.574L726.542 164.745L669.159 153.638Z" fill="black" stroke="black" stroke-width="1.85106"/>
<path d="M677.489 161.042L718.213 170.298L706.081 205.958L666.383 194.929L677.489 161.042Z" fill="white"/>
<path d="M683.263 168.207L711.222 174.561L702.893 199.044L675.638 191.472L683.263 168.207Z" fill="black"/>
</svg>
