<svg width="533" height="366" viewBox="0 0 533 366" fill="none" xmlns="http://www.w3.org/2000/svg">
<path d="M50.8204 164.439C50.8204 151.895 53.1238 140.413 57.7307 129.995C62.3375 119.576 68.787 110.646 77.0793 103.204C85.4424 95.6916 95.4357 89.88 107.059 85.7693C118.753 81.6586 131.688 79.6032 145.863 79.6032C159.966 79.6032 172.866 81.6586 184.56 85.7693C196.254 89.88 206.247 95.6916 214.54 103.204C222.903 110.646 229.388 119.576 233.994 129.995C238.601 140.413 240.905 151.895 240.905 164.439C240.905 175.638 239.062 186.021 235.376 195.589C231.762 205.086 226.624 213.52 219.961 220.891L249.835 248H207.098L196.786 238.645C189.556 242.472 181.689 245.378 173.185 247.362C164.68 249.347 155.572 250.339 145.863 250.339C131.688 250.339 118.753 248.248 107.059 244.066C95.4357 239.814 85.4424 233.896 77.0793 226.313C68.787 218.729 62.3375 209.693 57.7307 199.203C53.1238 188.643 50.8204 177.055 50.8204 164.439ZM84.5211 164.439C84.5211 173.015 86.0448 180.741 89.0924 187.615C92.2109 194.49 96.4988 200.373 101.956 205.263C107.484 210.082 113.969 213.803 121.411 216.426C128.924 219.048 137.074 220.359 145.863 220.359C155.289 220.359 163.9 218.871 171.696 215.894L124.069 172.732H166.806L195.722 198.991C199.337 194.384 202.137 189.21 204.121 183.469C206.176 177.657 207.204 171.314 207.204 164.439C207.204 155.864 205.645 148.174 202.526 141.37C199.408 134.566 195.12 128.825 189.663 124.148C184.205 119.399 177.72 115.784 170.208 113.304C162.766 110.823 154.651 109.583 145.863 109.583C137.074 109.583 128.924 110.823 121.411 113.304C113.969 115.784 107.484 119.399 101.956 124.148C96.4988 128.825 92.2109 134.566 89.0924 141.37C86.0448 148.174 84.5211 155.864 84.5211 164.439ZM274.393 122.553H305.861V140.626C312.806 135.452 320.142 130.987 327.867 127.231C335.592 123.474 343.282 120.604 350.937 118.619L360.186 147.43C348.066 148.635 337.4 151.363 328.186 155.616C319.043 159.797 311.602 165.715 305.861 173.37V248H274.393V122.553Z" fill="black"/>
<path d="M354.305 134.682C365.314 121.032 391.001 122.17 393.448 136.956C396.194 153.555 337.18 176.767 337.18 208.615C337.18 217.895 344.519 235.914 391.001 242.739" stroke="black" stroke-width="6.12613"/>
<path d="M424.367 219.832L385.812 242.511L407.357 278.799L475.397 296.943L494.674 233.44L424.367 219.832Z" fill="black" stroke="black" stroke-width="2.26797"/>
<path d="M434.573 228.903L484.468 240.243L469.604 283.935L420.965 270.422L434.573 228.903Z" fill="white"/>
<path d="M441.648 237.682L475.903 245.467L465.698 275.463L432.305 266.186L441.648 237.682Z" fill="black"/>
</svg>
