<svg width="459" height="431" viewBox="0 0 459 431" fill="none" xmlns="http://www.w3.org/2000/svg">
<path d="M325.496 38.3545L404.465 350.306L117.209 391.811L54.0001 80.6928L325.496 38.3545Z" fill="black"/>
<path d="M304.618 87.768L302.186 78.0543L292.288 79.5708L105.792 108.145L94.3858 109.892L96.6833 121.201L142.613 347.27L144.674 357.414L154.923 355.968L352.271 328.122L364.366 326.415L361.4 314.565L304.618 87.768Z" fill="white" stroke="white" stroke-width="21.9882"/>
<path d="M156.121 222.071C154.854 213.911 155.193 206.21 157.138 198.968C159.082 191.726 162.376 185.266 167.018 179.588C171.699 173.857 177.613 169.067 184.758 165.219C191.95 161.365 200.156 158.722 209.376 157.29C218.55 155.866 227.148 155.9 235.17 157.393C243.192 158.886 250.279 161.657 256.431 165.707C262.623 169.703 267.743 174.857 271.791 181.168C275.84 187.48 278.498 194.716 279.765 202.876C280.895 210.16 280.745 217.099 279.314 223.695C277.922 230.238 275.432 236.243 271.842 241.71L294.012 256.327L266.213 260.643L258.56 255.599C254.244 258.818 249.42 261.503 244.089 263.653C238.757 265.802 232.933 267.367 226.617 268.348C217.397 269.779 208.772 269.726 200.743 268.187C192.753 266.594 185.656 263.754 179.45 259.666C173.29 255.57 168.182 250.344 164.127 243.986C160.064 237.582 157.395 230.277 156.121 222.071ZM178.042 218.668C178.908 224.246 180.68 229.117 183.356 233.281C186.079 237.438 189.462 240.832 193.506 243.461C197.588 246.038 202.182 247.803 207.288 248.758C212.439 249.705 217.873 249.735 223.59 248.847C229.721 247.895 235.172 246.058 239.943 243.334L204.604 220.068L232.403 215.752L253.864 229.913C255.75 226.551 257.049 222.903 257.76 218.968C258.51 214.98 258.538 210.751 257.843 206.279C256.977 200.701 255.187 195.856 252.471 191.745C249.756 187.634 246.387 184.333 242.365 181.842C238.335 179.304 233.752 177.608 228.615 176.753C223.524 175.891 218.12 175.903 212.403 176.791C206.687 177.678 201.51 179.308 196.874 181.68C192.284 184.045 188.431 187.052 185.314 190.699C182.237 194.292 180.028 198.46 178.686 203.2C177.391 207.934 177.176 213.09 178.042 218.668Z" fill="black"/>
<rect x="219.018" y="74.1079" width="34.4786" height="32.9114" transform="rotate(-9.21004 219.018 74.1079)" fill="black"/>
<rect x="334.08" y="277.82" width="34.5528" height="32.9822" transform="rotate(-9.21004 334.08 277.82)" fill="black"/>
<rect x="158.964" y="323.892" width="48.8587" height="46.6378" transform="rotate(-9.21004 158.964 323.892)" fill="black"/>
<rect x="262.984" y="67.8357" width="55.8881" height="53.3477" transform="rotate(-9.21004 262.984 67.8357)" fill="black"/>
</svg>
